<svg xmlns="http://www.w3.org/2000/svg" width="43.29" height="43.29" viewBox="0 0 43.29 43.29">
  <g id="tick-circle-svgrepo-com_1_" data-name="tick-circle-svgrepo-com (1)" transform="translate(-1.25 -1.25)">
    <path id="Path_4036" data-name="Path 4036" d="M22.9,44.54A21.645,21.645,0,1,1,44.54,22.9,21.663,21.663,0,0,1,22.9,44.54Zm0-40.27A18.625,18.625,0,1,0,41.52,22.9,18.647,18.647,0,0,0,22.9,4.27Z" transform="translate(0 0)" fill="#009ca6"/>
    <path id="Path_4037" data-name="Path 4037" d="M14.205,22.844a1.509,1.509,0,0,1-1.067-.443l-5.7-5.7a1.509,1.509,0,0,1,2.134-2.134L14.205,19.2,24.555,8.851a1.509,1.509,0,1,1,2.134,2.134L15.272,22.4A1.509,1.509,0,0,1,14.205,22.844Z" transform="translate(5.83 7.259)" fill="#009ca6"/>
  </g>
</svg>
